<?xml version="1.0" encoding="UTF-8" standalone="no"?>
<!-- Created with Inkscape (http://www.inkscape.org/) -->

<svg
   width="200mm"
   height="40mm"
   viewBox="0 0 200.00058 40.000115"
   version="1.1"
   id="svg591"
   xml:space="preserve"
   inkscape:version="1.2.2 (b0a8486541, 2022-12-01)"
   sodipodi:docname="logo.svg"
   xmlns:inkscape="http://www.inkscape.org/namespaces/inkscape"
   xmlns:sodipodi="http://sodipodi.sourceforge.net/DTD/sodipodi-0.dtd"
   xmlns="http://www.w3.org/2000/svg"
   xmlns:svg="http://www.w3.org/2000/svg"><sodipodi:namedview
     id="namedview593"
     pagecolor="#202020"
     bordercolor="#666666"
     borderopacity="1.0"
     inkscape:showpageshadow="false"
     inkscape:pageopacity="0"
     inkscape:pagecheckerboard="true"
     inkscape:deskcolor="#d1d1d1"
     inkscape:document-units="mm"
     showgrid="false"
     inkscape:zoom="1.0570195"
     inkscape:cx="286.65507"
     inkscape:cy="127.71761"
     inkscape:window-width="1920"
     inkscape:window-height="1011"
     inkscape:window-x="0"
     inkscape:window-y="32"
     inkscape:window-maximized="1"
     inkscape:current-layer="layer1"
     showborder="false"
     borderlayer="false"
     shape-rendering="auto" /><defs
     id="defs588" /><g
     inkscape:label="Layer 1"
     inkscape:groupmode="layer"
     id="layer1"
     transform="translate(-29.53284,-110.74671)"><g
       id="g1086"
       transform="rotate(90,128.6348,164.25619)"><path
         style="fill:#37c964;fill-opacity:1;stroke:none;stroke-width:0.264583"
         d="m 82.825344,114.5918 c -1.635227,4.39035 -3.639612,14.5912 2.06931,16.65051 5.70889,2.05934 -1.62612,-11.66848 -2.06931,-16.65051 z"
         id="path767"
         sodipodi:nodetypes="czc" /><path
         style="fill:#37c964;fill-opacity:1;stroke:none;stroke-width:0.201316"
         d="m 102.81199,115.48601 c -2.47279,4.21373 -6.731246,7.33951 -8.555326,11.95157 -1.63264,4.12801 1.43562,8.39734 5.31732,5.62253 4.780006,-3.4169 4.445326,-12.75105 3.238006,-17.5741"
         id="path765" /><path
         style="fill:#37c964;fill-opacity:1;stroke:none;stroke-width:0.2141"
         d="m 89.524654,105.43546 c -4.26095,5.90446 -4.63701,8.64443 -0.92687,15.03395 3.92132,-5.69577 4.71286,-8.8269 0.92687,-15.03395"
         id="path763" /><path
         style="fill:#37c964;fill-opacity:1;stroke:none;stroke-width:0.264583"
         d="m 104.32484,131.72339 0.24773,0.0929 c 7.0138,-3.80512 5.61547,-9.10344 2.40012,-14.76988 v 0"
         id="path761"
         sodipodi:nodetypes="cccc" /><path
         style="fill:#37c964;fill-opacity:1;stroke:none;stroke-width:0.264583"
         d="m 86.040744,90.381259 c -0.65304,4.643561 -0.015,8.810385 2.19824,12.975281 3.8355,-5.56375 2.8209,-8.41975 -2.19824,-12.975281"
         id="path759" /><path
         style="fill:#37c964;fill-opacity:1;stroke:none;stroke-width:0.264583"
         d="m 97.294354,120.90462 c 0.65303,-4.64356 7.109056,-8.58132 1.85513,-12.18669 -3.83551,5.56376 -6.87427,7.63116 -1.85513,12.18669"
         id="path759-5"
         sodipodi:nodetypes="ccc" /><path
         style="fill:#37c964;fill-opacity:1;stroke:none;stroke-width:0.264583"
         d="m 92.958174,96.505734 c -0.65303,4.643536 -2.27828,11.015616 2.13625,14.647496 4.37774,-5.3604 2.88288,-10.09199 -2.13625,-14.647496"
         id="path759-6"
         sodipodi:nodetypes="ccc" /><path
         style="fill:#37c964;fill-opacity:1;stroke:none;stroke-width:0.264583"
         d="m 83.408184,100.41451 c -1.798115,4.20121 -4.151445,8.36063 -1.938199,12.52553 3.835519,-5.56377 6.957349,-7.97 1.938199,-12.52553"
         id="path939"
         sodipodi:nodetypes="ccc" /><path
         style="fill:#37c964;fill-opacity:1;stroke:none;stroke-width:0.264583"
         d="m 94.774684,121.23222 c -2.56156,3.92778 -1.31726,7.72807 -5.72346,9.41043 0.76904,-6.71379 -1.0535,-9.27888 5.72346,-9.41043"
         id="path759-6-7" /><path
         style="fill:#37c964;fill-opacity:1;stroke:none;stroke-width:0.264583"
         d="m 105.50692,113.36284 c 0.65303,-4.64357 0.015,-8.8104 -2.19825,-12.9753 -3.835496,5.56376 -2.8209,8.41977 2.19825,12.9753"
         id="path759-3" /><path
         style="fill:#37c964;fill-opacity:1;stroke:none;stroke-width:0.264583"
         d="m 99.170464,85.969009 c -3.84184,6.43928 -3.44969,8.523293 2.358446,13.979343 2.8152,-6.913303 1.05069,-6.777253 -2.358446,-13.979343"
         id="path757"
         sodipodi:nodetypes="ccc" /><path
         style="fill:#37c964;fill-opacity:1;stroke:none;stroke-width:0.264583"
         d="m 91.292474,74.497172 c -1.72144,4.659557 -3.11153,7.714207 -2.77928,10.513347 0.26727,2.25186 1.868,4.17615 4.57988,8.01563 2.79107,-6.89016 6.7552,-12.49114 -1.8006,-18.528977"
         id="path755"
         sodipodi:nodetypes="cscc" /><path
         id="path726"
         style="fill:#37c964;fill-opacity:1;stroke:none;stroke-width:0.272849"
         d="M 84.033846 196.27213 C 84.038891 226.2826 84.25015 247.1326 84.117562 248.82825 L 108.06191 249.08973 L 106.03257 133.43134 L 105.7685 133.41635 C 102.93498 139.66285 89.039867 133.10183 85.001231 135.37283 C 84.325782 135.75265 84.097051 157.29699 84.045731 182.87859 C 84.036444 187.51057 84.033125 191.98492 84.033846 196.27213 z M 88.333854 238.05678 L 88.333854 232.20906 C 88.333854 232.05195 88.377673 231.87224 88.509554 231.74035 C 88.641438 231.60852 88.823215 231.56258 88.980328 231.56258 L 90.36371 231.56258 C 90.520823 231.56258 90.700533 231.60847 90.832417 231.74035 C 90.964302 231.87224 91.010184 232.05195 91.010184 232.20906 L 91.010184 238.05678 C 91.010184 238.25003 91.060413 238.36707 91.194153 238.4919 C 91.334984 238.62329 91.4651 238.67586 91.64684 238.67586 L 94.279761 238.67586 L 94.279761 232.20906 C 94.279761 232.05195 94.325645 231.87224 94.457529 231.74035 C 94.589413 231.60852 94.769126 231.56258 94.926235 231.56258 L 96.309101 231.56258 C 96.466213 231.56258 96.64799 231.60847 96.779874 231.74035 C 96.911755 231.87224 96.955575 232.05195 96.955575 232.20906 L 96.955575 238.67586 L 99.549222 238.67586 C 99.730963 238.67586 99.861591 238.62334 100.00243 238.4919 C 100.13618 238.36707 100.18794 238.25003 100.18794 238.05678 L 100.18794 232.20906 C 100.18794 232.05195 100.23177 231.87224 100.36365 231.74035 C 100.49554 231.60852 100.67731 231.56258 100.83442 231.56258 L 102.21728 231.56258 C 102.37439 231.56258 102.5541 231.60847 102.68599 231.74035 C 102.81782 231.87224 102.86376 232.05195 102.86376 232.20906 L 102.86376 238.05678 C 102.86376 238.51023 102.7743 238.94456 102.59607 239.34559 C 102.4224 239.73636 102.18785 240.08705 101.89689 240.39256 L 101.89534 240.39669 L 101.8912 240.39825 C 101.59688 240.69256 101.24991 240.9293 100.85767 241.10363 L 100.84992 241.1057 L 100.84165 241.10931 C 100.43196 241.2703 99.998384 241.35168 99.548706 241.35168 L 91.646323 241.35168 C 91.196644 241.35168 90.768337 241.27029 90.369395 241.10776 L 90.36526 241.1057 L 90.363193 241.1057 C 89.957449 240.93181 89.601263 240.69516 89.304857 240.39876 L 89.30279 240.39669 L 89.298656 240.39256 C 89.007695 240.08705 88.775215 239.73636 88.601539 239.34559 C 88.423301 238.94456 88.333854 238.51023 88.333854 238.05678 z M 88.333854 226.79697 L 88.333854 220.65211 C 88.333854 220.495 88.377673 220.31374 88.509554 220.18185 C 88.641438 220.04997 88.823215 220.00563 88.980328 220.00563 L 90.363193 220.00563 C 90.520306 220.00563 90.700016 220.04996 90.8319 220.18185 C 90.963785 220.31374 91.009667 220.495 91.009667 220.65211 L 91.009667 226.79697 C 91.009667 226.97288 91.06038 227.0978 91.202938 227.24035 C 91.325451 227.36288 91.447523 227.41399 91.646323 227.41399 L 93.622952 227.41399 C 93.815915 227.41399 93.947978 227.35904 94.08184 227.23829 C 94.207045 227.10094 94.259607 226.97478 94.259607 226.79697 L 94.259607 222.37087 C 94.259607 221.94589 94.369925 221.5399 94.582069 221.17404 C 94.771574 220.81211 95.020027 220.49007 95.324145 220.21492 C 95.631143 219.93716 95.9838 219.71811 96.375247 219.55863 C 96.7566 219.39779 97.152655 219.3142 97.554506 219.3142 L 99.568343 219.31368 L 99.918193 219.31368 L 99.918193 219.40515 C 100.24012 219.44034 100.56488 219.47059 100.85716 219.60049 C 101.24794 219.77417 101.59861 220.00871 101.90412 220.29967 L 101.90826 220.30174 L 101.91033 220.30587 C 102.20464 220.60021 102.44087 220.94666 102.61519 221.33889 L 102.61726 221.34509 L 102.61933 221.34922 C 102.78187 221.74816 102.86376 222.17853 102.86376 222.62822 L 102.86376 229.04852 C 102.86376 229.20563 102.81787 229.38533 102.68599 229.51722 C 102.5541 229.64905 102.37388 229.69499 102.21677 229.69499 L 100.83442 229.69499 C 100.67731 229.69499 100.49554 229.6491 100.36365 229.51722 C 100.23177 229.38534 100.18794 229.20563 100.18794 229.04852 L 100.18794 222.62822 C 100.18794 222.44647 100.13924 222.32786 100.01379 222.2024 C 99.873999 222.06255 99.742465 222.00913 99.549222 222.00913 L 99.199372 222.00913 L 99.199372 221.99001 L 97.57466 221.99001 C 97.381414 221.99001 97.263847 222.04179 97.139027 222.17553 L 97.134892 222.17915 L 97.129208 222.18328 C 96.986649 222.32584 96.935938 222.45076 96.935938 222.62667 L 96.935938 227.05225 C 96.935938 227.48649 96.835568 227.90271 96.638797 228.28112 L 96.638797 228.28319 L 96.63673 228.28681 C 96.446346 228.63826 96.19689 228.95303 95.892587 229.22835 L 95.884836 229.23455 L 95.879152 229.24024 C 95.562136 229.49963 95.206916 229.71008 94.820298 229.86759 L 94.816681 229.86914 L 94.81048 229.87121 C 94.419248 230.01606 94.021761 230.09032 93.622952 230.09032 L 91.646323 230.09032 C 91.196644 230.09032 90.768337 230.01048 90.369395 229.84795 L 90.36526 229.84589 L 90.363193 229.84382 C 89.957449 229.66993 89.601263 229.43536 89.304857 229.13895 L 89.30279 229.13482 L 89.298656 229.13068 C 89.007695 228.82517 88.775215 228.475 88.601539 228.08423 C 88.423301 227.68321 88.333854 227.25042 88.333854 226.79697 z M 88.333854 214.32999 L 88.333854 210.18192 C 88.333854 209.72993 88.422381 209.29874 88.599472 208.89879 C 88.599872 208.89779 88.601169 208.89759 88.601539 208.89672 C 88.601798 208.89572 88.60128 208.89523 88.601539 208.89465 C 88.775261 208.49063 89.009464 208.13533 89.304857 207.83993 C 89.601263 207.54353 89.957449 207.30844 90.363193 207.13455 C 90.763142 206.95742 91.194337 206.86893 91.646323 206.86893 L 94.314385 206.86945 C 94.767824 206.86945 95.205398 206.95859 95.617151 207.13506 L 95.619218 207.13506 L 95.621285 207.13713 C 96.01352 207.31146 96.362027 207.54559 96.656367 207.83993 C 96.95214 208.13571 97.185383 208.49206 97.359169 208.89672 L 97.361236 208.89879 C 97.538331 209.29874 97.626853 209.72993 97.626853 210.18192 L 97.626853 214.96923 L 102.21677 214.96923 C 102.37388 214.96923 102.55358 215.01304 102.68547 215.14493 C 102.8173 215.27682 102.86324 215.4586 102.86324 215.61571 L 102.86324 216.99806 C 102.86324 217.15517 102.81735 217.33539 102.68547 217.46728 C 102.55358 217.59911 102.37388 217.64453 102.21677 217.64453 L 91.646323 217.64453 C 91.194337 217.64453 90.763142 217.55599 90.363193 217.37891 C 90.362293 217.37891 90.361989 217.37773 90.361126 217.37736 C 90.360526 217.3771 90.360159 217.37762 90.359576 217.37736 C 89.955549 217.20364 89.600254 216.96738 89.304857 216.67198 C 89.010512 216.37764 88.775867 216.0312 88.601539 215.63896 L 88.599472 215.63689 L 88.599472 215.63483 C 88.423007 215.22307 88.333854 214.78344 88.333854 214.32999 z M 88.683704 202.37823 L 88.683704 198.22964 C 88.683704 197.82135 88.762339 197.43957 88.920383 197.08397 C 89.078428 196.7152 89.289497 196.39912 89.552905 196.1357 C 89.816311 195.8723 90.132399 195.66174 90.50117 195.5037 C 90.856769 195.34565 91.238557 195.2665 91.64684 195.2665 L 102.21625 195.2665 C 102.4138 195.2665 102.51236 195.36506 102.51236 195.56261 L 102.51236 196.94548 C 102.51236 197.14304 102.4138 197.2421 102.21625 197.2421 L 97.573627 197.2421 C 97.376071 197.2421 97.277003 197.34065 97.277003 197.53821 L 97.277003 203.06967 C 97.277003 203.26722 97.376071 203.36629 97.573627 203.36629 L 102.21625 203.36629 C 102.4138 203.36629 102.51236 203.46484 102.51236 203.6624 L 102.51236 205.04526 C 102.51236 205.24282 102.4138 205.34189 102.21625 205.34189 L 91.64684 205.34189 C 91.238557 205.34189 90.856769 205.26273 90.50117 205.10469 C 90.132399 204.94664 89.816311 204.73609 89.552905 204.47269 C 89.289497 204.20928 89.078428 203.89966 88.920383 203.54406 C 88.762339 203.17529 88.683704 202.78652 88.683704 202.37823 z M 88.683704 189.53712 L 88.683704 185.38853 C 88.683704 184.98025 88.762339 184.59846 88.920383 184.24286 C 89.078428 183.87408 89.289497 183.558 89.552905 183.29459 C 89.816311 183.03118 90.132399 182.82012 90.50117 182.66207 C 90.856769 182.50402 91.238557 182.42539 91.64684 182.42539 L 93.918542 182.42539 C 94.274142 182.42539 94.616614 182.48462 94.945872 182.60316 C 95.261962 182.72169 95.551665 182.88646 95.815073 183.09719 C 96.065309 183.30791 96.282846 183.55778 96.467231 183.84753 C 96.638446 184.13728 96.756914 184.4469 96.822766 184.77616 L 102.21625 181.20066 C 102.24258 181.18746 102.27542 181.1805 102.31495 181.1805 C 102.38082 181.1805 102.43359 181.22033 102.47308 181.29936 C 102.49942 181.36522 102.51236 181.43093 102.51236 181.49676 L 102.51236 183.1561 C 102.51236 183.24829 102.48596 183.30752 102.43329 183.33386 C 102.38063 183.34706 102.30846 183.38689 102.21625 183.45272 L 97.869733 186.33679 C 97.645837 186.49484 97.435285 186.679 97.237729 186.88973 C 97.027003 187.10046 96.908535 187.35731 96.882194 187.66023 L 96.882194 190.22855 C 96.882194 190.42611 96.980745 190.52518 97.178301 190.52518 L 102.21625 190.52518 C 102.4138 190.52518 102.51236 190.62373 102.51236 190.82128 L 102.51236 192.20415 C 102.51236 192.4017 102.4138 192.50077 102.21625 192.50077 L 91.64684 192.50077 C 91.238557 192.50077 90.856769 192.42162 90.50117 192.26358 C 90.132399 192.10554 89.816311 191.89499 89.552905 191.63157 C 89.289497 191.36817 89.078428 191.05854 88.920383 190.70294 C 88.762339 190.33418 88.683704 189.9454 88.683704 189.53712 z M 88.683704 176.85414 L 88.683704 170.41369 C 88.683704 170.21613 88.782255 170.11758 88.979811 170.11758 L 90.362677 170.11758 C 90.560231 170.11758 90.6593 170.21613 90.6593 170.41369 L 90.6593 176.85414 C 90.6593 177.13072 90.757851 177.36118 90.955407 177.54557 C 91.152963 177.72996 91.383432 177.82204 91.64684 177.82204 L 99.549222 177.82204 C 99.81263 177.82204 100.04311 177.72996 100.24065 177.54557 C 100.43821 177.36118 100.53676 177.13072 100.53676 176.85414 L 100.53676 172.66575 C 100.53676 172.40234 100.44467 172.17886 100.26029 171.99447 C 100.06273 171.79692 99.8258 171.69785 99.549222 171.69785 L 97.573627 171.69785 C 97.376071 171.69785 97.277003 171.79692 97.277003 171.99447 L 97.277003 173.35718 C 97.277003 173.55474 97.178452 173.65381 96.980896 173.65381 L 95.598031 173.65381 C 95.400475 173.65381 95.301407 173.55474 95.301407 173.35718 L 95.301407 170.01888 C 95.301407 169.82132 95.400475 169.72225 95.598031 169.72225 L 99.549222 169.72225 C 99.957506 169.72225 100.34576 169.8014 100.71453 169.95945 C 101.07014 170.11749 101.37975 170.32804 101.64316 170.59145 C 101.90656 170.85486 102.11712 171.16448 102.27516 171.52008 C 102.4332 171.87568 102.51236 172.25747 102.51236 172.66575 L 102.51236 176.85414 C 102.51236 177.26242 102.4332 177.6442 102.27516 177.99981 C 102.11712 178.35541 101.90656 178.6715 101.64316 178.94807 C 101.37975 179.21149 101.07014 179.42255 100.71453 179.58059 C 100.34576 179.72547 99.957506 179.79764 99.549222 179.79764 L 91.64684 179.79764 C 91.238557 179.79764 90.856769 179.72547 90.50117 179.58059 C 90.132399 179.42255 89.816311 179.21149 89.552905 178.94807 C 89.289497 178.6715 89.078428 178.35541 88.920383 177.99981 C 88.762339 177.6442 88.683704 177.26242 88.683704 176.85414 z M 88.683704 164.19079 L 88.683704 157.37517 C 88.683704 157.17761 88.782255 157.07906 88.979811 157.07906 L 99.549222 157.07906 C 99.957506 157.07906 100.34576 157.1577 100.71453 157.31574 C 101.07014 157.47379 101.37975 157.68485 101.64316 157.94826 C 101.90656 158.21167 102.11712 158.52775 102.27516 158.89653 C 102.4332 159.25213 102.51236 159.63391 102.51236 160.0422 L 102.51236 164.19079 C 102.51236 164.59908 102.4332 164.98785 102.27516 165.35662 C 102.11712 165.71222 101.90656 166.02131 101.64316 166.28473 C 101.37975 166.54813 101.07014 166.75921 100.71453 166.91725 C 100.34576 167.07529 99.957506 167.15393 99.549222 167.15393 L 91.64684 167.15393 C 91.238557 167.15393 90.856769 167.07529 90.50117 166.91725 C 90.132399 166.75921 89.816311 166.54813 89.552905 166.28473 C 89.289497 166.02131 89.078428 165.71222 88.920383 165.35662 C 88.762339 164.98785 88.683704 164.59908 88.683704 164.19079 z M 88.683704 151.76464 L 88.683704 145.62081 C 88.683704 145.42326 88.782255 145.32419 88.979811 145.32419 L 90.362677 145.32419 C 90.560231 145.32419 90.6593 145.42326 90.6593 145.62081 L 90.6593 151.76464 C 90.6593 152.02805 90.757851 152.25851 90.955407 152.45607 C 91.139792 152.64046 91.370261 152.73254 91.64684 152.73254 L 93.622435 152.73254 C 93.899013 152.73254 94.135949 152.64046 94.333505 152.45607 C 94.517891 152.25851 94.609975 152.02805 94.609975 151.76464 L 94.609975 147.33958 C 94.609975 146.9708 94.702576 146.62832 94.886961 146.31225 C 95.058176 145.98299 95.281662 145.69327 95.55824 145.44305 C 95.834818 145.19281 96.150906 144.99519 96.506505 144.85031 C 96.848936 144.70544 97.198389 144.63276 97.55399 144.63276 L 99.568859 144.63276 L 99.568859 144.65239 C 99.97714 144.65239 100.35893 144.73154 100.71453 144.88959 C 101.07014 145.04764 101.38622 145.25819 101.66279 145.52159 C 101.9262 145.785 102.13727 146.09462 102.29532 146.45022 C 102.44019 146.80583 102.51236 147.18813 102.51236 147.59641 L 102.51236 154.01671 C 102.51236 154.21426 102.4138 154.31281 102.21625 154.31281 L 100.83339 154.31281 C 100.63583 154.31281 100.53676 154.21426 100.53676 154.01671 L 100.53676 147.59641 C 100.53676 147.333 100.44467 147.109 100.26029 146.92461 C 100.06273 146.72705 99.8258 146.62799 99.549222 146.62799 L 99.549222 146.60835 L 97.573627 146.60835 C 97.297048 146.60835 97.066579 146.70742 96.882194 146.90498 C 96.684638 147.10254 96.58557 147.333 96.58557 147.59641 L 96.58557 152.02147 C 96.58557 152.40342 96.499953 152.75882 96.328738 153.08808 C 96.157523 153.40416 95.934037 153.6874 95.657459 153.93764 C 95.367711 154.17471 95.04464 154.36586 94.68904 154.51073 C 94.33344 154.64244 93.978036 154.70814 93.622435 154.70814 L 91.64684 154.70814 C 91.238557 154.70814 90.856769 154.63598 90.50117 154.4911 C 90.132399 154.33306 89.816311 154.12199 89.552905 153.85858 C 89.289497 153.582 89.078428 153.26591 88.920383 152.91031 C 88.762339 152.5547 88.683704 152.17292 88.683704 151.76464 z M 90.6593 202.37823 C 90.6593 202.65481 90.757851 202.89226 90.955407 203.08982 C 91.139792 203.2742 91.370261 203.36629 91.64684 203.36629 L 95.005301 203.36629 C 95.202855 203.36629 95.301407 203.26722 95.301407 203.06967 L 95.301407 197.53821 C 95.301407 197.34065 95.202855 197.2421 95.005301 197.2421 L 91.64684 197.2421 C 91.370261 197.2421 91.139792 197.34065 90.955407 197.53821 C 90.757851 197.72259 90.6593 197.95306 90.6593 198.22964 L 90.6593 202.37823 z M 90.6593 189.53712 C 90.6593 189.8137 90.757851 190.05115 90.955407 190.24871 C 91.139792 190.43309 91.370261 190.52518 91.64684 190.52518 L 94.609975 190.52518 C 94.807531 190.52518 94.906598 190.42611 94.906598 190.22855 L 94.906598 185.38853 C 94.906598 185.11195 94.814513 184.88148 94.630129 184.69709 C 94.432573 184.49953 94.19512 184.40099 93.918542 184.40099 L 91.64684 184.40099 C 91.370261 184.40099 91.139792 184.49953 90.955407 184.69709 C 90.757851 184.88148 90.6593 185.11195 90.6593 185.38853 L 90.6593 189.53712 z M 90.6593 164.19079 C 90.6593 164.46737 90.757851 164.70431 90.955407 164.90186 C 91.139792 165.08625 91.370261 165.17885 91.64684 165.17885 L 99.549222 165.17885 C 99.8258 165.17885 100.06273 165.08625 100.26029 164.90186 C 100.44467 164.70431 100.53676 164.46737 100.53676 164.19079 L 100.53676 160.0422 C 100.53676 159.76562 100.44467 159.53515 100.26029 159.35076 C 100.06273 159.15321 99.8258 159.05414 99.549222 159.05414 L 90.955407 159.05414 C 90.757851 159.05414 90.6593 159.15321 90.6593 159.35076 L 90.6593 164.19079 z M 91.009667 214.32999 C 91.009667 214.52323 91.063128 214.65527 91.202938 214.79508 C 91.32545 214.91761 91.44752 214.96872 91.646323 214.96872 L 94.95104 214.96872 L 94.95104 210.1814 C 94.95104 209.9826 94.899921 209.86105 94.777407 209.73853 C 94.637598 209.59877 94.507627 209.54474 94.314385 209.54474 L 91.646323 209.54474 C 91.453077 209.54474 91.33603 209.59445 91.211206 209.72819 L 91.202938 209.73801 L 91.193119 209.74628 C 91.059376 209.87111 91.009667 209.98815 91.009667 210.1814 L 91.009667 214.32999 z " /></g></g></svg>
